<?xml version="1.0" encoding="UTF-8"?>
<svg xmlns="http://www.w3.org/2000/svg" xmlns:xlink="http://www.w3.org/1999/xlink" width="384px" height="384px" viewBox="0 0 384 384" version="1.1">
<g id="surface1">
<path style=" stroke:none;fill-rule:evenodd;fill:rgb(0%,0%,0%);fill-opacity:1;" d="M 360 288 C 360 290.4375 359.53125 292.738281 358.859375 294.9375 L 252 180 L 360 96 Z M 42.671875 311.351562 L 150.960938 195.960938 L 192 226.980469 L 231.265625 195.769531 L 341.328125 311.351562 C 339.613281 311.746094 44.386719 311.746094 42.671875 311.351562 Z M 24 288 L 24 96 L 132 180 L 25.140625 294.9375 C 24.46875 292.738281 24 290.4375 24 288 Z M 348 72 L 192 192 L 36 72 Z M 336 48 L 48 48 C 21.492188 48 0 69.492188 0 96 L 0 288 C 0 314.507812 21.492188 336 48 336 L 336 336 C 362.507812 336 384 314.507812 384 288 L 384 96 C 384 69.492188 362.507812 48 336 48 Z M 336 48 "/>
</g>
</svg>
